<?xml version="1.0" encoding="utf-8"?>
<!-- Generator: Adobe Illustrator 24.3.0, SVG Export Plug-In . SVG Version: 6.00 Build 0)  -->
<svg version="1.1" id="图层_1" xmlns="http://www.w3.org/2000/svg" xmlns:xlink="http://www.w3.org/1999/xlink" x="0px" y="0px"
	 viewBox="0 0 6180 4228" style="enable-background:new 0 0 6180 4228;" xml:space="preserve">
<style type="text/css">
	.st0{fill-rule:evenodd;clip-rule:evenodd;fill-opacity:0;}
	.st1{fill:none;stroke:#000000;stroke-width:1.9995;stroke-linecap:round;stroke-linejoin:bevel;stroke-miterlimit:3.9991;}
	
		.st2{fill-rule:evenodd;clip-rule:evenodd;fill-opacity:0;stroke:#000000;stroke-width:0.9998;stroke-linecap:square;stroke-linejoin:bevel;stroke-miterlimit:3.9991;stroke-opacity:0;}
	
		.st3{fill-rule:evenodd;clip-rule:evenodd;fill:#FF0000;stroke:#000000;stroke-width:0.9998;stroke-linecap:square;stroke-linejoin:bevel;stroke-miterlimit:3.9991;}
	
		.st4{fill-rule:evenodd;clip-rule:evenodd;fill:#37C837;stroke:#000000;stroke-width:0.9998;stroke-linecap:square;stroke-linejoin:bevel;stroke-miterlimit:3.9991;}
	.st5{font-family:'TimesNewRomanPSMT';}
	.st6{font-size:72px;}
	.st7{font-size:71.9838px;}
</style>
<desc>A haplotype network image created by PopART.</desc>
<g>
	<g transform="matrix(1,0,0,1,0,0)">
	</g>
	<g transform="matrix(0.999775,0,0,0.999775,1857.1,0)">
	</g>
	<g transform="matrix(0.999775,0,0,0.999775,1857.1,0)">
		<path vector-effect="non-scaling-stroke" class="st0" d="M-1857.5,0h6180.8v4229h-6180.8V0"/>
	</g>
	<g transform="matrix(0.999775,0,0,0.999775,1857.1,0)">
	</g>
	<g transform="matrix(0.999775,0,0,0.999775,1857.1,0)">
	</g>
	<g transform="matrix(0.999775,0,0,0.999775,1857.1,0)">
		<line vector-effect="none" class="st1" x1="-300.3" y1="2541.2" x2="958.4" y2="2526"/>
		<line vector-effect="none" class="st1" x1="326" y1="2528" x2="326" y2="2538"/>
	</g>
	<g transform="matrix(0.999775,0,0,0.999775,1857.1,0)">
	</g>
	<g transform="matrix(0.999775,0,0,0.999775,1857.1,0)">
	</g>
	<g transform="matrix(0.999775,0,0,0.999775,1857.1,0)">
		<line vector-effect="none" class="st1" x1="1323.3" y1="1374.5" x2="2633.6" y2="1369.5"/>
		<line vector-effect="none" class="st1" x1="1975" y1="1367" x2="1975" y2="1377"/>
	</g>
	<g transform="matrix(0.999775,0,0,0.999775,1857.1,0)">
	</g>
	<g transform="matrix(0.999775,0,0,0.999775,1857.1,0)">
	</g>
	<g transform="matrix(0.999775,0,0,0.999775,1857.1,0)">
		<line vector-effect="none" class="st1" x1="1323.3" y1="1374.5" x2="1576.5" y2="686.3"/>
		<line vector-effect="none" class="st1" x1="1443" y1="1033" x2="1452" y2="1036"/>
		<line vector-effect="none" class="st1" x1="1445" y1="1028" x2="1454" y2="1032"/>
	</g>
	<g transform="matrix(0.999775,0,0,0.999775,1857.1,0)">
	</g>
	<g transform="matrix(0.999775,0,0,0.999775,1857.1,0)">
	</g>
	<g transform="matrix(0.999775,0,0,0.999775,1857.1,0)">
		<line vector-effect="none" class="st1" x1="1930.4" y1="2527.3" x2="2670.2" y2="3173.5"/>
		<line vector-effect="none" class="st1" x1="2301" y1="2844" x2="2295" y2="2852"/>
	</g>
	<g transform="matrix(0.999775,0,0,0.999775,1857.1,0)">
	</g>
	<g transform="matrix(0.999775,0,0,0.999775,1857.1,0)">
	</g>
	<g transform="matrix(0.999775,0,0,0.999775,1857.1,0)">
		<line vector-effect="none" class="st1" x1="1930.4" y1="2527.3" x2="2633.6" y2="1369.5"/>
		<line vector-effect="none" class="st1" x1="2276" y1="1947" x2="2284" y2="1953"/>
	</g>
	<g transform="matrix(0.999775,0,0,0.999775,1857.1,0)">
	</g>
	<g transform="matrix(0.999775,0,0,0.999775,1857.1,0)">
	</g>
	<g transform="matrix(0.999775,0,0,0.999775,1857.1,0)">
		<line vector-effect="none" class="st1" x1="1930.4" y1="2527.3" x2="1522.9" y2="2223.9"/>
		<line vector-effect="none" class="st1" x1="1733" y1="2374" x2="1727" y2="2382"/>
		<line vector-effect="none" class="st1" x1="1729" y1="2371" x2="1723" y2="2379"/>
	</g>
	<g transform="matrix(0.999775,0,0,0.999775,1857.1,0)">
	</g>
	<g transform="matrix(0.999775,0,0,0.999775,1857.1,0)">
	</g>
	<g transform="matrix(0.999775,0,0,0.999775,1857.1,0)">
		<line vector-effect="none" class="st1" x1="1930.4" y1="2527.3" x2="1538.2" y2="2863.4"/>
		<line vector-effect="none" class="st1" x1="1734" y1="2688" x2="1741" y2="2695"/>
		<line vector-effect="none" class="st1" x1="1731" y1="2691" x2="1737" y2="2699"/>
	</g>
	<g transform="matrix(0.999775,0,0,0.999775,1857.1,0)">
	</g>
	<g transform="matrix(0.999775,0,0,0.999775,1857.1,0)">
	</g>
	<g transform="matrix(0.999775,0,0,0.999775,1857.1,0)">
		<line vector-effect="none" class="st1" x1="958.4" y1="2526" x2="1323.3" y2="1374.5"/>
		<line vector-effect="none" class="st1" x1="1135" y1="1951" x2="1144" y2="1954"/>
	</g>
	<g transform="matrix(0.999775,0,0,0.999775,1857.1,0)">
	</g>
	<g transform="matrix(0.999775,0,0,0.999775,1857.1,0)">
	</g>
	<g transform="matrix(0.999775,0,0,0.999775,1857.1,0)">
		<line vector-effect="none" class="st1" x1="958.4" y1="2526" x2="1930.4" y2="2527.3"/>
		<line vector-effect="none" class="st1" x1="1441" y1="2521" x2="1441" y2="2531"/>
	</g>
	<g transform="matrix(0.999775,0,0,0.999775,1857.1,0)">
	</g>
	<g transform="matrix(0.999775,0,0,0.999775,1857.1,0)">
	</g>
	<g transform="matrix(0.999775,0,0,0.999775,1857.1,0)">
		<line vector-effect="none" class="st1" x1="958.4" y1="2526" x2="578.9" y2="1852.5"/>
		<line vector-effect="none" class="st1" x1="774" y1="2189" x2="765" y2="2193"/>
	</g>
	<g transform="matrix(0.999775,0,0,0.999775,1857.1,0)">
	</g>
	<g transform="matrix(0.999775,0,0,0.999775,1857.1,0)">
	</g>
	<g transform="matrix(0.999775,0,0,0.999775,1857.1,0)">
		<line vector-effect="none" class="st1" x1="958.4" y1="2526" x2="1328.2" y2="3152"/>
		<line vector-effect="none" class="st1" x1="1146" y1="2834" x2="1137" y2="2839"/>
	</g>
	<g transform="matrix(0.999775,0,0,0.999775,1857.1,0)">
	</g>
	<g transform="matrix(0.999775,0,0,0.999775,1857.1,0)">
	</g>
	<g transform="matrix(0.999775,0,0,0.999775,1857.1,0)">
		<line vector-effect="none" class="st1" x1="2670.2" y1="3173.5" x2="1328.2" y2="3152"/>
		<line vector-effect="none" class="st1" x1="2001" y1="3157" x2="2001" y2="3167"/>
	</g>
	<g transform="matrix(0.999775,0,0,0.999775,1857.1,0)">
	</g>
	<g transform="matrix(0.999775,0,0,0.999775,1857.1,0)">
	</g>
	<g transform="matrix(0.999775,0,0,0.999775,1857.1,0)">
		<line vector-effect="none" class="st1" x1="2670.2" y1="3173.5" x2="3312.4" y2="2480"/>
		<line vector-effect="none" class="st1" x1="2985" y1="2825" x2="2993" y2="2831"/>
	</g>
	<g transform="matrix(0.999775,0,0,0.999775,1857.1,0)">
	</g>
	<g transform="matrix(0.999775,0,0,0.999775,1857.1,0)">
	</g>
	<g transform="matrix(0.999775,0,0,0.999775,1857.1,0)">
		<line vector-effect="none" class="st1" x1="2633.6" y1="1369.5" x2="3312.4" y2="2480"/>
		<line vector-effect="none" class="st1" x1="2975" y1="1919" x2="2967" y2="1925"/>
	</g>
	<g transform="matrix(0.999775,0,0,0.999775,1857.1,0)">
	</g>
	<g transform="matrix(0.999775,0,0,0.999775,1857.1,0)">
	</g>
	<g transform="matrix(0.999775,0,0,0.999775,1857.1,0)">
		<line vector-effect="none" class="st1" x1="2633.6" y1="1369.5" x2="2847.8" y2="989.9"/>
		<line vector-effect="none" class="st1" x1="2735" y1="1179" x2="2743" y2="1184"/>
	</g>
	<g transform="matrix(0.999775,0,0,0.999775,1857.1,0)">
	</g>
	<g transform="matrix(0.999775,0,0,0.999775,1857.1,0)">
	</g>
	<g transform="matrix(0.999775,0,0,0.999775,1857.1,0)">
		<line vector-effect="none" class="st1" x1="-605" y1="1628.5" x2="-300.3" y2="2541.2"/>
		<line vector-effect="none" class="st1" x1="-450" y1="2076" x2="-459" y2="2079"/>
		<line vector-effect="none" class="st1" x1="-448" y1="2080" x2="-458" y2="2084"/>
		<line vector-effect="none" class="st1" x1="-447" y1="2085" x2="-456" y2="2088"/>
	</g>
	<g transform="matrix(0.999775,0,0,0.999775,1857.1,0)">
	</g>
	<g transform="matrix(0.999775,0,0,0.999775,1857.1,0)">
	</g>
	<g transform="matrix(0.999775,0,0,0.999775,1857.1,0)">
		<line vector-effect="none" class="st1" x1="377.2" y1="3320.6" x2="958.4" y2="2526"/>
		<line vector-effect="none" class="st1" x1="657" y1="2928" x2="665" y2="2934"/>
		<line vector-effect="none" class="st1" x1="660" y1="2924" x2="668" y2="2930"/>
		<line vector-effect="none" class="st1" x1="663" y1="2920" x2="671" y2="2926"/>
		<line vector-effect="none" class="st1" x1="666" y1="2916" x2="674" y2="2922"/>
	</g>
	<g transform="matrix(0.999775,0,0,0.999775,1857.1,0)">
	</g>
	<g transform="matrix(0.999775,0,0,0.999775,536.496,-619.034)">
	</g>
	<g transform="matrix(0.999775,0,0,0.999775,536.496,-619.034)">
		<path vector-effect="non-scaling-stroke" class="st2" d="M1492.5,3160.4c0,260.6-211.3,471.9-471.9,471.9
			c-260.6,0-471.9-211.3-471.9-471.9s211.3-471.9,471.9-471.9C1281.2,2688.5,1492.5,2899.7,1492.5,3160.4"/>
	</g>
	<g transform="matrix(0.999775,0,0,0.999775,536.496,-619.034)">
	</g>
	<g transform="matrix(0.999775,0,0,0.999775,536.496,-619.034)">
	</g>
	<g transform="matrix(0.999775,0,0,0.999775,536.496,-619.034)">
		<path vector-effect="none" class="st3" d="M1020.6,3160.4h471.9c0-241.1-180.9-440-414.3-468.4L1020.6,3160.4"/>
	</g>
	<g transform="matrix(0.999775,0,0,0.999775,536.496,-619.034)">
	</g>
	<g transform="matrix(0.999775,0,0,0.999775,536.496,-619.034)">
	</g>
	<g transform="matrix(0.999775,0,0,0.999775,536.496,-619.034)">
		<path vector-effect="none" class="st4" d="M1020.6,3160.4l57.6-468.4c-18.9-2.3-38.1-3.5-57.6-3.5
			c-260.6,0-471.9,211.3-471.9,471.9s211.3,471.9,471.9,471.9c260.6,0,471.9-211.3,471.9-471.9H1020.6"/>
	</g>
	<g transform="matrix(0.999775,0,0,0.999775,536.496,-619.034)">
	</g>
	<g transform="matrix(1,0,0,1,425.836,2254.53)">
	</g>
	<g transform="matrix(1,0,0,1,425.836,2254.53)">
		<text transform="matrix(1 0 0 1 367.0139 36)" class="st5 st6">ASV_1</text>
	</g>
	<g transform="matrix(1,0,0,1,425.836,2254.53)">
	</g>
	<g transform="matrix(0.999775,0,0,0.999775,1594.01,423.007)">
	</g>
	<g transform="matrix(0.999775,0,0,0.999775,1594.01,423.007)">
		<path vector-effect="non-scaling-stroke" class="st2" d="M1912.9,951.4c0,180.3-146.2,326.5-326.5,326.5
			c-180.3,0-326.5-146.2-326.5-326.5c0-180.3,146.2-326.5,326.5-326.5C1766.7,624.9,1912.9,771.1,1912.9,951.4"/>
	</g>
	<g transform="matrix(0.999775,0,0,0.999775,1594.01,423.007)">
	</g>
	<g transform="matrix(0.999775,0,0,0.999775,1594.01,423.007)">
	</g>
	<g transform="matrix(0.999775,0,0,0.999775,1594.01,423.007)">
		<path vector-effect="none" class="st3" d="M1586.4,951.4h326.5c0-180.3-146.2-326.5-326.5-326.5c-180.3,0-326.5,146.2-326.5,326.5
			c0,88,34.8,167.8,91.4,226.5L1586.4,951.4"/>
	</g>
	<g transform="matrix(0.999775,0,0,0.999775,1594.01,423.007)">
	</g>
	<g transform="matrix(0.999775,0,0,0.999775,1594.01,423.007)">
	</g>
	<g transform="matrix(0.999775,0,0,0.999775,1594.01,423.007)">
		<path vector-effect="none" class="st4" d="M1586.4,951.4L1351.3,1178c59.4,61.6,142.8,99.9,235.1,99.9
			c180.3,0,326.5-146.2,326.5-326.5H1586.4"/>
	</g>
	<g transform="matrix(0.999775,0,0,0.999775,1594.01,423.007)">
	</g>
	<g transform="matrix(1,0,0,1,2529.75,810.518)">
	</g>
	<g transform="matrix(1,0,0,1,2529.75,810.518)">
		<text transform="matrix(1 0 0 1 249.0139 260.0001)" class="st5 st6">ASV_2</text>
	</g>
	<g transform="matrix(1,0,0,1,2529.75,810.518)">
	</g>
	<g transform="matrix(0.999775,0,0,0.999775,1449.57,1114.26)">
	</g>
	<g transform="matrix(0.999775,0,0,0.999775,1449.57,1114.26)">
		<path vector-effect="non-scaling-stroke" class="st2" d="M2594.8,1412.8c0,141.8-115,256.8-256.8,256.8
			c-141.8,0-256.8-115-256.8-256.8c0-141.8,114.9-256.8,256.8-256.8C2479.8,1156,2594.8,1271,2594.8,1412.8"/>
	</g>
	<g transform="matrix(0.999775,0,0,0.999775,1449.57,1114.26)">
	</g>
	<g transform="matrix(0.999775,0,0,0.999775,1449.57,1114.26)">
	</g>
	<g transform="matrix(0.999775,0,0,0.999775,1449.57,1114.26)">
		<path vector-effect="none" class="st3" d="M2338,1412.8h256.8c0-141.8-115-256.8-256.8-256.8c-141.8,0-256.8,114.9-256.8,256.8
			c0,141.8,114.9,256.8,256.8,256.8c48.9,0,94.6-13.7,133.5-37.4L2338,1412.8"/>
	</g>
	<g transform="matrix(0.999775,0,0,0.999775,1449.57,1114.26)">
	</g>
	<g transform="matrix(0.999775,0,0,0.999775,1449.57,1114.26)">
	</g>
	<g transform="matrix(0.999775,0,0,0.999775,1449.57,1114.26)">
		<path vector-effect="none" class="st4" d="M2338,1412.8l133.5,219.4c73.9-45.1,123.3-126.5,123.3-219.4H2338"/>
	</g>
	<g transform="matrix(0.999775,0,0,0.999775,1449.57,1114.26)">
	</g>
	<g transform="matrix(1,0,0,1,4098.94,2497.01)">
	</g>
	<g transform="matrix(1,0,0,1,4098.94,2497.01)">
		<text transform="matrix(1 0 0 1 1.416056e-02 36)" class="st5 st6">ASV_3</text>
	</g>
	<g transform="matrix(1,0,0,1,4098.94,2497.01)">
	</g>
	<g transform="matrix(0.999775,0,0,0.999775,1119.42,562.29)">
	</g>
	<g transform="matrix(0.999775,0,0,0.999775,1119.42,562.29)">
		<path vector-effect="non-scaling-stroke" class="st2" d="M1937.9,1963.6c0,133.5-108.2,241.6-241.6,241.6
			s-241.6-108.2-241.6-241.6c0-133.5,108.2-241.6,241.6-241.6S1937.9,1830.2,1937.9,1963.6"/>
	</g>
	<g transform="matrix(0.999775,0,0,0.999775,1119.42,562.29)">
	</g>
	<g transform="matrix(0.999775,0,0,0.999775,1119.42,562.29)">
	</g>
	<g transform="matrix(0.999775,0,0,0.999775,1119.42,562.29)">
		<path vector-effect="none" class="st3" d="M1696.2,1963.6h241.6c0-133.5-108.2-241.6-241.6-241.6s-241.6,108.2-241.6,241.6
			c0,82.1,40.9,154.6,103.5,198.3L1696.2,1963.6"/>
	</g>
	<g transform="matrix(0.999775,0,0,0.999775,1119.42,562.29)">
	</g>
	<g transform="matrix(0.999775,0,0,0.999775,1119.42,562.29)">
	</g>
	<g transform="matrix(0.999775,0,0,0.999775,1119.42,562.29)">
		<path vector-effect="none" class="st4" d="M1696.2,1963.6l-138.2,198.3c39.2,27.3,86.8,43.4,138.2,43.4
			c133.5,0,241.6-108.2,241.6-241.6H1696.2"/>
	</g>
	<g transform="matrix(0.999775,0,0,0.999775,1119.42,562.29)">
	</g>
	<g transform="matrix(1,0,0,1,2022.83,2191.02)">
	</g>
	<g transform="matrix(1,0,0,1,2022.83,2191.02)">
		<text transform="matrix(1 0 0 1 370.0139 128)" class="st5 st6">ASV_4</text>
	</g>
	<g transform="matrix(1,0,0,1,2022.83,2191.02)">
	</g>
	<g transform="matrix(0.999775,0,0,0.999775,1563.06,1578.54)">
	</g>
	<g transform="matrix(0.999775,0,0,0.999775,1563.06,1578.54)">
		<path vector-effect="non-scaling-stroke" class="st2" d="M3200.6,1594.6c0,130.5-105.8,236.2-236.2,236.2
			c-130.5,0-236.2-105.8-236.2-236.2s105.8-236.2,236.2-236.2C3094.8,1358.4,3200.6,1464.2,3200.6,1594.6"/>
	</g>
	<g transform="matrix(0.999775,0,0,0.999775,1563.06,1578.54)">
	</g>
	<g transform="matrix(0.999775,0,0,0.999775,1563.06,1578.54)">
	</g>
	<g transform="matrix(0.999775,0,0,0.999775,1563.06,1578.54)">
		<path vector-effect="none" class="st3" d="M2964.4,1594.6h236.2c0-130.5-105.8-236.2-236.2-236.2
			c-130.5,0-236.2,105.8-236.2,236.2c0,129.4,104.1,234.5,233.1,236.2L2964.4,1594.6"/>
	</g>
	<g transform="matrix(0.999775,0,0,0.999775,1563.06,1578.54)">
	</g>
	<g transform="matrix(0.999775,0,0,0.999775,1563.06,1578.54)">
	</g>
	<g transform="matrix(0.999775,0,0,0.999775,1563.06,1578.54)">
		<path vector-effect="none" class="st4" d="M2964.4,1594.6l-3.1,236.2c1,0,2.1,0,3.1,0c130.5,0,236.2-105.8,236.2-236.2H2964.4"/>
	</g>
	<g transform="matrix(0.999775,0,0,0.999775,1563.06,1578.54)">
	</g>
	<g transform="matrix(1,0,0,1,4828.18,3148.13)">
	</g>
	<g transform="matrix(1,0,0,1,4828.18,3148.13)">
		<text transform="matrix(1 0 0 1 1.415994e-02 36)" class="st5 st6">ASV_5</text>
	</g>
	<g transform="matrix(1,0,0,1,4828.18,3148.13)">
	</g>
	<g transform="matrix(0.999775,0,0,0.999775,2460.66,521.021)">
	</g>
	<g transform="matrix(0.999775,0,0,0.999775,2460.66,521.021)">
		<path vector-effect="non-scaling-stroke" class="st2" d="M1123,165.2c0,82.9-67.2,150.2-150.2,150.2
			c-82.9,0-150.2-67.2-150.2-150.2C822.7,82.2,889.9,15,972.8,15C1055.8,15,1123,82.2,1123,165.2"/>
	</g>
	<g transform="matrix(0.999775,0,0,0.999775,2460.66,521.021)">
	</g>
	<g transform="matrix(0.999775,0,0,0.999775,2460.66,521.021)">
	</g>
	<g transform="matrix(0.999775,0,0,0.999775,2460.66,521.021)">
		<path vector-effect="none" class="st3" d="M972.8,165.2H1123C1123,82.2,1055.8,15,972.8,15c-82.9,0-150.2,67.2-150.2,150.2
			c0,82.9,67.2,150.2,150.2,150.2c79,0,143.7-61,149.7-138.4L972.8,165.2"/>
	</g>
	<g transform="matrix(0.999775,0,0,0.999775,2460.66,521.021)">
	</g>
	<g transform="matrix(0.999775,0,0,0.999775,2460.66,521.021)">
	</g>
	<g transform="matrix(0.999775,0,0,0.999775,2460.66,521.021)">
		<path vector-effect="none" class="st4" d="M972.8,165.2l149.7,11.8c0.3-3.9,0.4-7.8,0.4-11.8H972.8"/>
	</g>
	<g transform="matrix(0.999775,0,0,0.999775,2460.66,521.021)">
	</g>
	<g transform="matrix(1,0,0,1,2763.21,339.99)">
	</g>
	<g transform="matrix(1,0,0,1,2763.21,339.99)">
		<text transform="matrix(1 0 0 1 429.0139 180)" class="st5 st6">ASV_6</text>
	</g>
	<g transform="matrix(1,0,0,1,2763.21,339.99)">
	</g>
	<g transform="matrix(0.999775,0,0,0.999775,510.703,-598.4)">
	</g>
	<g transform="matrix(0.999775,0,0,0.999775,510.703,-598.4)">
		<path vector-effect="non-scaling-stroke" class="st2" d="M2078.9,2451.1c0,84.7-68.6,153.3-153.3,153.3
			c-84.7,0-153.3-68.6-153.3-153.3c0-84.7,68.7-153.3,153.3-153.3C2010.3,2297.7,2078.9,2366.4,2078.9,2451.1"/>
	</g>
	<g transform="matrix(0.999775,0,0,0.999775,510.703,-598.4)">
	</g>
	<g transform="matrix(0.999775,0,0,0.999775,510.703,-598.4)">
	</g>
	<g transform="matrix(0.999775,0,0,0.999775,510.703,-598.4)">
		<path vector-effect="none" class="st3" d="M1925.6,2451.1h153.3c0-84.7-68.6-153.3-153.3-153.3c-84.7,0-153.3,68.6-153.3,153.3
			c0,72.5,50.3,133.2,117.8,149.2L1925.6,2451.1"/>
	</g>
	<g transform="matrix(0.999775,0,0,0.999775,510.703,-598.4)">
	</g>
	<g transform="matrix(0.999775,0,0,0.999775,510.703,-598.4)">
	</g>
	<g transform="matrix(0.999775,0,0,0.999775,510.703,-598.4)">
		<path vector-effect="none" class="st4" d="M1925.6,2451.1l-35.5,149.2c11.4,2.7,23.3,4.1,35.5,4.1c84.7,0,153.3-68.6,153.3-153.3
			H1925.6"/>
	</g>
	<g transform="matrix(0.999775,0,0,0.999775,510.703,-598.4)">
	</g>
	<g transform="matrix(1,0,0,1,2113.45,1476.99)">
	</g>
	<g transform="matrix(1,0,0,1,2113.45,1476.99)">
		<text transform="matrix(1 0 0 1 1.391619e-02 242)" class="st5 st6">ASV_7</text>
	</g>
	<g transform="matrix(1,0,0,1,2113.45,1476.99)">
	</g>
	<g transform="matrix(0.999775,0,0,0.999775,2176.94,722.207)">
	</g>
	<g transform="matrix(0.999775,0,0,0.999775,2176.94,722.207)">
		<path vector-effect="non-scaling-stroke" class="st2" d="M2463.7,647.1c0,82.8-67.1,150-150,150c-82.8,0-150-67.2-150-150
			c0-82.8,67.2-150,150-150C2396.6,497.1,2463.7,564.3,2463.7,647.1"/>
	</g>
	<g transform="matrix(0.999775,0,0,0.999775,2176.94,722.207)">
	</g>
	<g transform="matrix(0.999775,0,0,0.999775,2176.94,722.207)">
	</g>
	<g transform="matrix(0.999775,0,0,0.999775,2176.94,722.207)">
		<path vector-effect="none" class="st3" d="M2313.7,647.1h150c0-82.8-67.1-150-150-150c-82.8,0-150,67.2-150,150
			c0,78,59.6,142.2,135.8,149.3L2313.7,647.1"/>
	</g>
	<g transform="matrix(0.999775,0,0,0.999775,2176.94,722.207)">
	</g>
	<g transform="matrix(0.999775,0,0,0.999775,2176.94,722.207)">
	</g>
	<g transform="matrix(0.999775,0,0,0.999775,2176.94,722.207)">
		<path vector-effect="none" class="st4" d="M2313.7,647.1l-14.2,149.3c4.7,0.4,9.4,0.7,14.2,0.7c82.9,0,150-67.2,150-150H2313.7"/>
	</g>
	<g transform="matrix(0.999775,0,0,0.999775,2176.94,722.207)">
	</g>
	<g transform="matrix(1,0,0,1,4707.56,1224.36)">
	</g>
	<g transform="matrix(1,0,0,1,4707.56,1224.36)">
		<text transform="matrix(1 0 0 1 -14.9858 195)" class="st5 st6">ASV_8</text>
	</g>
	<g transform="matrix(1,0,0,1,4707.56,1224.36)">
	</g>
	<g transform="matrix(0.999775,0,0,0.999775,907.917,1320.61)">
	</g>
	<g transform="matrix(0.999775,0,0,0.999775,907.917,1320.61)">
		<path vector-effect="non-scaling-stroke" class="st2" d="M2389.8,1831.1c0,62-50.3,112.2-112.2,112.2s-112.2-50.3-112.2-112.2
			c0-62,50.3-112.2,112.2-112.2S2389.8,1769.1,2389.8,1831.1"/>
	</g>
	<g transform="matrix(0.999775,0,0,0.999775,907.917,1320.61)">
	</g>
	<g transform="matrix(0.999775,0,0,0.999775,907.917,1320.61)">
	</g>
	<g transform="matrix(0.999775,0,0,0.999775,907.917,1320.61)">
		<path vector-effect="none" class="st3" d="M2277.6,1831.1h112.2c0-62-50.3-112.2-112.2-112.2s-112.2,50.2-112.2,112.2
			c0,41.1,22.1,77.1,55.2,96.7L2277.6,1831.1"/>
	</g>
	<g transform="matrix(0.999775,0,0,0.999775,907.917,1320.61)">
	</g>
	<g transform="matrix(0.999775,0,0,0.999775,907.917,1320.61)">
	</g>
	<g transform="matrix(0.999775,0,0,0.999775,907.917,1320.61)">
		<path vector-effect="none" class="st4" d="M2277.6,1831.1l-57.1,96.7c16.7,9.9,36.2,15.6,57.1,15.6c62,0,112.2-50.3,112.2-112.2
			H2277.6"/>
	</g>
	<g transform="matrix(0.999775,0,0,0.999775,907.917,1320.61)">
	</g>
	<g transform="matrix(1,0,0,1,2784.98,3245.39)">
	</g>
	<g transform="matrix(1,0,0,1,2784.98,3245.39)">
		<text transform="matrix(1 0 0 1 1.391648e-02 36)" class="st5 st6">ASV_9</text>
	</g>
	<g transform="matrix(1,0,0,1,2784.98,3245.39)">
	</g>
	<g transform="matrix(0.999775,0,0,0.999775,2496.77,1619.81)">
	</g>
	<g transform="matrix(0.999775,0,0,0.999775,2496.77,1619.81)">
		<path vector-effect="non-scaling-stroke" class="st2" d="M2762.9,859.8c0,49.9-40.4,90.3-90.3,90.3c-49.9,0-90.3-40.4-90.3-90.3
			c0-49.9,40.4-90.3,90.3-90.3C2722.5,769.5,2762.9,809.9,2762.9,859.8"/>
	</g>
	<g transform="matrix(0.999775,0,0,0.999775,2496.77,1619.81)">
	</g>
	<g transform="matrix(0.999775,0,0,0.999775,2496.77,1619.81)">
	</g>
	<g transform="matrix(0.999775,0,0,0.999775,2496.77,1619.81)">
		<path vector-effect="none" class="st3" d="M2672.6,859.8h90.3c0-49.9-40.4-90.3-90.3-90.3c-49.9,0-90.3,40.4-90.3,90.3
			c0,32.5,17.1,60.9,42.9,76.9L2672.6,859.8"/>
	</g>
	<g transform="matrix(0.999775,0,0,0.999775,2496.77,1619.81)">
	</g>
	<g transform="matrix(0.999775,0,0,0.999775,2496.77,1619.81)">
	</g>
	<g transform="matrix(0.999775,0,0,0.999775,2496.77,1619.81)">
		<path vector-effect="none" class="st4" d="M2672.6,859.8l-47.5,76.9c13.8,8.5,30,13.5,47.5,13.5c49.9,0,90.3-40.4,90.3-90.3
			H2672.6"/>
	</g>
	<g transform="matrix(0.999775,0,0,0.999775,2496.77,1619.81)">
	</g>
	<g transform="matrix(1,0,0,1,5309.88,2445.89)">
	</g>
	<g transform="matrix(1,0,0,1,5309.88,2445.89)">
		<text transform="matrix(1 0 0 1 1.367169e-02 36)" class="st5 st6">ASV_10</text>
	</g>
	<g transform="matrix(1,0,0,1,5309.88,2445.89)">
	</g>
	<g transform="matrix(0.999775,0,0,0.999775,2259.48,778.952)">
	</g>
	<g transform="matrix(0.999775,0,0,0.999775,2259.48,778.952)">
		<path vector-effect="non-scaling-stroke" class="st2" d="M2526.2,210.8c0,44.6-36.2,80.8-80.8,80.8c-44.6,0-80.8-36.2-80.8-80.8
			s36.2-80.8,80.8-80.8C2490,130,2526.2,166.2,2526.2,210.8"/>
	</g>
	<g transform="matrix(0.999775,0,0,0.999775,2259.48,778.952)">
	</g>
	<g transform="matrix(0.999775,0,0,0.999775,2259.48,778.952)">
	</g>
	<g transform="matrix(0.999775,0,0,0.999775,2259.48,778.952)">
		<path vector-effect="none" class="st3" d="M2445.4,210.8h80.8c0-44.6-36.2-80.8-80.8-80.8c-44.6,0-80.8,36.2-80.8,80.8
			s36.2,80.8,80.8,80.8c35.6,0,65.8-23,76.6-55L2445.4,210.8"/>
	</g>
	<g transform="matrix(0.999775,0,0,0.999775,2259.48,778.952)">
	</g>
	<g transform="matrix(0.999775,0,0,0.999775,2259.48,778.952)">
	</g>
	<g transform="matrix(0.999775,0,0,0.999775,2259.48,778.952)">
		<path vector-effect="none" class="st4" d="M2445.4,210.8l76.6,25.8c2.7-8.1,4.2-16.8,4.2-25.8H2445.4"/>
	</g>
	<g transform="matrix(0.999775,0,0,0.999775,2259.48,778.952)">
	</g>
	<g transform="matrix(1,0,0,1,3869.65,790.296)">
	</g>
	<g transform="matrix(1,0,0,1,3869.65,790.296)">
		<text transform="matrix(1 0 0 1 606.0139 79)" class="st5 st6">ASV_11</text>
	</g>
	<g transform="matrix(1,0,0,1,3869.65,790.296)">
	</g>
	<g transform="matrix(0.999775,0,0,0.999775,1171.01,-1707.5)">
	</g>
	<g transform="matrix(0.999775,0,0,0.999775,1171.01,-1707.5)">
		<path vector-effect="non-scaling-stroke" class="st2" d="M147.5,3336.4c0,36.6-29.7,66.2-66.2,66.2c-36.6,0-66.2-29.7-66.2-66.2
			c0-36.6,29.7-66.2,66.2-66.2C117.8,3270.1,147.5,3299.8,147.5,3336.4"/>
	</g>
	<g transform="matrix(0.999775,0,0,0.999775,1171.01,-1707.5)">
	</g>
	<g transform="matrix(0.999775,0,0,0.999775,1171.01,-1707.5)">
	</g>
	<g transform="matrix(0.999775,0,0,0.999775,1171.01,-1707.5)">
		<path vector-effect="none" class="st3" d="M81.3,3336.4h66.2c0-5.5-0.7-10.8-1.9-15.8L81.3,3336.4"/>
	</g>
	<g transform="matrix(0.999775,0,0,0.999775,1171.01,-1707.5)">
	</g>
	<g transform="matrix(0.999775,0,0,0.999775,1171.01,-1707.5)">
	</g>
	<g transform="matrix(0.999775,0,0,0.999775,1171.01,-1707.5)">
		<path vector-effect="none" class="st4" d="M81.3,3336.4l64.3-15.8c-7.1-28.9-33.2-50.4-64.3-50.4c-36.6,0-66.2,29.7-66.2,66.2
			c0,36.6,29.7,66.2,66.2,66.2c36.6,0,66.2-29.7,66.2-66.2H81.3"/>
	</g>
	<g transform="matrix(0.999775,0,0,0.999775,1171.01,-1707.5)">
	</g>
	<g transform="matrix(1,0,0,1,887.283,1314.29)">
	</g>
	<g transform="matrix(1,0,0,1,887.283,1314.29)">
		<text transform="matrix(1 0 0 1 1.385500e-02 204.9999)" class="st5 st6">ASV_12</text>
	</g>
	<g transform="matrix(1,0,0,1,887.283,1314.29)">
	</g>
	<g transform="matrix(0.999775,0,0,0.999775,1356.72,1439.25)">
	</g>
	<g transform="matrix(0.999775,0,0,0.999775,1356.72,1439.25)">
		<path vector-effect="non-scaling-stroke" class="st2" d="M2098.4,784.3c0,41.4-33.6,75-75,75s-75-33.6-75-75c0-41.4,33.6-75,75-75
			S2098.4,742.9,2098.4,784.3"/>
	</g>
	<g transform="matrix(0.999775,0,0,0.999775,1356.72,1439.25)">
	</g>
	<g transform="matrix(0.999775,0,0,0.999775,1356.72,1439.25)">
	</g>
	<g transform="matrix(0.999775,0,0,0.999775,1356.72,1439.25)">
		<path vector-effect="none" class="st3" d="M2023.4,784.3h75c0-41.4-33.6-75-75-75s-75,33.6-75,75c0,41.4,33.6,75,75,75
			c14.8,0,28.5-4.3,40.2-11.7L2023.4,784.3"/>
	</g>
	<g transform="matrix(0.999775,0,0,0.999775,1356.72,1439.25)">
	</g>
	<g transform="matrix(0.999775,0,0,0.999775,1356.72,1439.25)">
	</g>
	<g transform="matrix(0.999775,0,0,0.999775,1356.72,1439.25)">
		<path vector-effect="none" class="st4" d="M2023.4,784.3l40.2,63.3c20.9-13.3,34.8-36.7,34.8-63.3H2023.4"/>
	</g>
	<g transform="matrix(0.999775,0,0,0.999775,1356.72,1439.25)">
	</g>
	<g transform="matrix(1,0,0,1,3190.49,1869.83)">
	</g>
	<g transform="matrix(1,0,0,1,3190.49,1869.83)">
		<text transform="matrix(1 0 0 1 -15.9861 250)" class="st5 st6">ASV_13</text>
	</g>
	<g transform="matrix(1,0,0,1,3190.49,1869.83)">
	</g>
	<g transform="matrix(0.999775,0,0,0.999775,1686.87,1619.81)">
	</g>
	<g transform="matrix(0.999775,0,0,0.999775,1686.87,1619.81)">
		<path vector-effect="non-scaling-stroke" class="st2" d="M1776,1243.2c0,37.3-30.2,67.5-67.5,67.5s-67.5-30.2-67.5-67.5
			s30.2-67.5,67.5-67.5S1776,1206,1776,1243.2"/>
	</g>
	<g transform="matrix(0.999775,0,0,0.999775,1686.87,1619.81)">
	</g>
	<g transform="matrix(0.999775,0,0,0.999775,1686.87,1619.81)">
	</g>
	<g transform="matrix(0.999775,0,0,0.999775,1686.87,1619.81)">
		<path vector-effect="none" class="st3" d="M1708.5,1243.2h67.5c0-37.3-30.2-67.5-67.5-67.5s-67.5,30.2-67.5,67.5
			s30.2,67.5,67.5,67.5c28.2,0,52.4-17.3,62.5-41.9L1708.5,1243.2"/>
	</g>
	<g transform="matrix(0.999775,0,0,0.999775,1686.87,1619.81)">
	</g>
	<g transform="matrix(0.999775,0,0,0.999775,1686.87,1619.81)">
	</g>
	<g transform="matrix(0.999775,0,0,0.999775,1686.87,1619.81)">
		<path vector-effect="none" class="st4" d="M1708.5,1243.2l62.5,25.6c3.2-7.9,5-16.5,5-25.6H1708.5"/>
	</g>
	<g transform="matrix(0.999775,0,0,0.999775,1686.87,1619.81)">
	</g>
	<g transform="matrix(1,0,0,1,3419.61,2852.03)">
	</g>
	<g transform="matrix(1,0,0,1,3419.61,2852.03)">
		<text transform="matrix(1 0 0 1 42.0139 63)" class="st5 st6">ASV_14</text>
	</g>
	<g transform="matrix(1,0,0,1,3419.61,2852.03)">
	</g>
	<g transform="matrix(0.999775,0,0,0.999775,1140.05,1717.82)">
	</g>
	<g transform="matrix(0.999775,0,0,0.999775,1140.05,1717.82)">
		<path vector-effect="non-scaling-stroke" class="st2" d="M1122.4,1602.4c0,15.5-12.6,28.1-28.1,28.1s-28.1-12.6-28.1-28.1
			s12.6-28.1,28.1-28.1S1122.4,1586.9,1122.4,1602.4"/>
	</g>
	<g transform="matrix(0.999775,0,0,0.999775,1140.05,1717.82)">
	</g>
	<g transform="matrix(0.999775,0,0,0.999775,1140.05,1717.82)">
	</g>
	<g transform="matrix(0.999775,0,0,0.999775,1140.05,1717.82)">
		<path vector-effect="none" class="st3" d="M1094.4,1602.4h28.1c0-15.5-12.6-28.1-28.1-28.1s-28.1,12.6-28.1,28.1
			c0,13.3,9.3,24.5,21.8,27.4L1094.4,1602.4"/>
	</g>
	<g transform="matrix(0.999775,0,0,0.999775,1140.05,1717.82)">
	</g>
	<g transform="matrix(0.999775,0,0,0.999775,1140.05,1717.82)">
	</g>
	<g transform="matrix(0.999775,0,0,0.999775,1140.05,1717.82)">
		<path vector-effect="none" class="st4" d="M1094.4,1602.4l-6.3,27.4c2,0.5,4.1,0.7,6.3,0.7c15.5,0,28.1-12.6,28.1-28.1H1094.4"/>
	</g>
	<g transform="matrix(0.999775,0,0,0.999775,1140.05,1717.82)">
	</g>
	<g transform="matrix(1,0,0,1,1818.5,3374.36)">
	</g>
	<g transform="matrix(1,0,0,1,1818.5,3374.36)">
		<text transform="matrix(1 0 0 1 92.0139 8)" class="st5 st6">ASV_15</text>
	</g>
	<g transform="matrix(1,0,0,1,1818.5,3374.36)">
	</g>
	<g transform="matrix(0.999775,0,0,0.999775,5543.2,3781.67)">
	</g>
	<g transform="matrix(0.999775,0,0,0.999775,5543.2,3781.67)">
	</g>
	<g transform="matrix(0.999775,0,0,0.999775,5669.46,3796.66)">
	</g>
	<g transform="matrix(0.999775,0,0,0.999775,5669.46,3796.66)">
	</g>
	<g transform="matrix(0.999775,0,0,0.999775,5533.2,3779.88)">
	</g>
	<g transform="matrix(0.999775,0,0,0.999775,5533.2,3779.88)">
	</g>
	<g transform="matrix(0.999775,0,0,0.999775,5685.67,3830.09)">
	</g>
	<g transform="matrix(0.999775,0,0,0.999775,5685.67,3830.09)">
	</g>
	<g transform="matrix(0.999775,0,0,0.999775,5565.2,3845.59)">
	</g>
	<g transform="matrix(0.999775,0,0,0.999775,5565.2,3845.59)">
	</g>
	<g transform="matrix(0.999775,0,0,0.999775,5558.2,3940.06)">
	</g>
	<g transform="matrix(0.999775,0,0,0.999775,5558.2,3940.06)">
		<path vector-effect="non-scaling-stroke" class="st3" d="M22.5,7.5c0,8.3-6.7,15-15,15c-8.3,0-15-6.7-15-15c0-8.3,6.7-15,15-15
			C15.8-7.5,22.5-0.8,22.5,7.5"/>
	</g>
	<g transform="matrix(0.999775,0,0,0.999775,5558.2,3940.06)">
	</g>
	<g transform="matrix(0.999775,0,0,0.999775,5588.19,3940.06)">
	</g>
	<g transform="matrix(0.999775,0,0,0.999775,5588.19,3940.06)">
		<text transform="matrix(1.0002 0 0 1.0002 81.3022 32.7278)" class="st5 st6">2021</text>
	</g>
	<g transform="matrix(0.999775,0,0,0.999775,5588.19,3940.06)">
	</g>
	<g transform="matrix(0.999775,0,0,0.999775,5558.2,4076.03)">
	</g>
	<g transform="matrix(0.999775,0,0,0.999775,5558.2,4076.03)">
		<path vector-effect="non-scaling-stroke" class="st4" d="M22.5,7.5c0,8.3-6.7,15-15,15c-8.3,0-15-6.7-15-15c0-8.3,6.7-15,15-15
			C15.8-7.5,22.5-0.8,22.5,7.5"/>
	</g>
	<g transform="matrix(0.999775,0,0,0.999775,5558.2,4076.03)">
	</g>
	<g transform="matrix(0.999775,0,0,0.999775,5588.19,4076.03)">
	</g>
	<g transform="matrix(0.999775,0,0,0.999775,5588.19,4076.03)">
		<text transform="matrix(1.0002 0 0 1.0002 80.3022 32.5057)" class="st5 st7">2022</text>
	</g>
	<g transform="matrix(0.999775,0,0,0.999775,5588.19,4076.03)">
	</g>
	<g transform="matrix(1,0,0,1,0,0)">
	</g>
</g>
</svg>
