<?xml version="1.0" encoding="UTF-8" standalone="no"?>
<svg width="363.361mm" height="195.086mm"
 viewBox="0 0 1030 553"
 xmlns="http://www.w3.org/2000/svg" xmlns:xlink="http://www.w3.org/1999/xlink"  version="1.2" baseProfile="tiny">
<title>PopART SVG Image</title>
<desc>A haplotype network image created by PopART.</desc>
<defs>
</defs>
<g fill="none" stroke="black" stroke-width="1" fill-rule="evenodd" stroke-linecap="square" stroke-linejoin="bevel" >

<g fill="none" stroke="#000000" stroke-opacity="1" stroke-width="1" stroke-linecap="square" stroke-linejoin="bevel" transform="matrix(1,0,0,1,0,0)"
font-family="SimSun" font-size="9" font-weight="400" font-style="normal" 
>
</g>

<g fill="none" stroke="#000000" stroke-opacity="1" stroke-width="1" stroke-linecap="square" stroke-linejoin="bevel" transform="matrix(0.999405,0,0,0.999405,0,0)"
font-family="SimSun" font-size="9" font-weight="400" font-style="normal" 
>
</g>

<g fill="#000000" fill-opacity="0" stroke="none" transform="matrix(0.999405,0,0,0.999405,0,0)"
font-family="SimSun" font-size="9" font-weight="400" font-style="normal" 
>
<path vector-effect="non-scaling-stroke" fill-rule="evenodd" d="M0,0 L1030.4,0 L1030.4,553.329 L0,553.329 L0,0"/>
</g>

<g fill="none" stroke="#000000" stroke-opacity="1" stroke-width="1" stroke-linecap="square" stroke-linejoin="bevel" transform="matrix(0.999405,0,0,0.999405,0,0)"
font-family="SimSun" font-size="9" font-weight="400" font-style="normal" 
>
</g>

<g fill="none" stroke="#000000" stroke-opacity="1" stroke-width="1" stroke-linecap="square" stroke-linejoin="bevel" transform="matrix(0.999405,0,0,0.999405,0,0)"
font-family="SimSun" font-size="9" font-weight="400" font-style="normal" 
>
</g>

<g fill="none" stroke="#55aa00" stroke-opacity="1" stroke-width="2" stroke-linecap="round" stroke-linejoin="bevel" transform="matrix(0.999405,0,0,0.999405,0,0)"
font-family="SimSun" font-size="9" font-weight="400" font-style="normal" 
>
<polyline fill="none" vector-effect="none" points="856.33,394.154 864.867,295.491 " />
<polyline fill="none" vector-effect="none" points="855,346 865,347 " />
</g>

<g fill="none" stroke="#000000" stroke-opacity="1" stroke-width="1" stroke-linecap="square" stroke-linejoin="bevel" transform="matrix(0.999405,0,0,0.999405,0,0)"
font-family="SimSun" font-size="9" font-weight="400" font-style="normal" 
>
</g>

<g fill="none" stroke="#000000" stroke-opacity="1" stroke-width="1" stroke-linecap="square" stroke-linejoin="bevel" transform="matrix(0.999405,0,0,0.999405,0,0)"
font-family="SimSun" font-size="9" font-weight="400" font-style="normal" 
>
</g>

<g fill="none" stroke="#55aa00" stroke-opacity="1" stroke-width="2" stroke-linecap="round" stroke-linejoin="bevel" transform="matrix(0.999405,0,0,0.999405,0,0)"
font-family="SimSun" font-size="9" font-weight="400" font-style="normal" 
>
<polyline fill="none" vector-effect="none" points="856.33,394.154 817.88,466.4 " />
<polyline fill="none" vector-effect="none" points="833,425 842,430 " />
</g>

<g fill="none" stroke="#000000" stroke-opacity="1" stroke-width="1" stroke-linecap="square" stroke-linejoin="bevel" transform="matrix(0.999405,0,0,0.999405,0,0)"
font-family="SimSun" font-size="9" font-weight="400" font-style="normal" 
>
</g>

<g fill="none" stroke="#000000" stroke-opacity="1" stroke-width="1" stroke-linecap="square" stroke-linejoin="bevel" transform="matrix(0.999405,0,0,0.999405,0,0)"
font-family="SimSun" font-size="9" font-weight="400" font-style="normal" 
>
</g>

<g fill="none" stroke="#55aa00" stroke-opacity="1" stroke-width="2" stroke-linecap="round" stroke-linejoin="bevel" transform="matrix(0.999405,0,0,0.999405,0,0)"
font-family="SimSun" font-size="9" font-weight="400" font-style="normal" 
>
<polyline fill="none" vector-effect="none" points="856.33,394.154 781.788,368.492 " />
<polyline fill="none" vector-effect="none" points="823,377 819,386 " />
</g>

<g fill="none" stroke="#000000" stroke-opacity="1" stroke-width="1" stroke-linecap="square" stroke-linejoin="bevel" transform="matrix(0.999405,0,0,0.999405,0,0)"
font-family="SimSun" font-size="9" font-weight="400" font-style="normal" 
>
</g>

<g fill="none" stroke="#000000" stroke-opacity="1" stroke-width="1" stroke-linecap="square" stroke-linejoin="bevel" transform="matrix(0.999405,0,0,0.999405,0,0)"
font-family="SimSun" font-size="9" font-weight="400" font-style="normal" 
>
</g>

<g fill="none" stroke="#55aa00" stroke-opacity="1" stroke-width="2" stroke-linecap="round" stroke-linejoin="bevel" transform="matrix(0.999405,0,0,0.999405,0,0)"
font-family="SimSun" font-size="9" font-weight="400" font-style="normal" 
>
<polyline fill="none" vector-effect="none" points="856.33,394.154 930.314,442.241 " />
<polyline fill="none" vector-effect="none" points="893,412 888,421 " />
</g>

<g fill="none" stroke="#000000" stroke-opacity="1" stroke-width="1" stroke-linecap="square" stroke-linejoin="bevel" transform="matrix(0.999405,0,0,0.999405,0,0)"
font-family="SimSun" font-size="9" font-weight="400" font-style="normal" 
>
</g>

<g fill="none" stroke="#000000" stroke-opacity="1" stroke-width="1" stroke-linecap="square" stroke-linejoin="bevel" transform="matrix(0.999405,0,0,0.999405,0,0)"
font-family="SimSun" font-size="9" font-weight="400" font-style="normal" 
>
</g>

<g fill="none" stroke="#55aa00" stroke-opacity="1" stroke-width="2" stroke-linecap="round" stroke-linejoin="bevel" transform="matrix(0.999405,0,0,0.999405,0,0)"
font-family="SimSun" font-size="9" font-weight="400" font-style="normal" 
>
<polyline fill="none" vector-effect="none" points="864.867,295.491 922.134,235.402 " />
<polyline fill="none" vector-effect="none" points="888,263 895,270 " />
</g>

<g fill="none" stroke="#000000" stroke-opacity="1" stroke-width="1" stroke-linecap="square" stroke-linejoin="bevel" transform="matrix(0.999405,0,0,0.999405,0,0)"
font-family="SimSun" font-size="9" font-weight="400" font-style="normal" 
>
</g>

<g fill="none" stroke="#000000" stroke-opacity="1" stroke-width="1" stroke-linecap="square" stroke-linejoin="bevel" transform="matrix(0.999405,0,0,0.999405,0,0)"
font-family="SimSun" font-size="9" font-weight="400" font-style="normal" 
>
</g>

<g fill="none" stroke="#55aa00" stroke-opacity="1" stroke-width="2" stroke-linecap="round" stroke-linejoin="bevel" transform="matrix(0.999405,0,0,0.999405,0,0)"
font-family="SimSun" font-size="9" font-weight="400" font-style="normal" 
>
<polyline fill="none" vector-effect="none" points="864.867,295.491 773.298,296.354 " />
<polyline fill="none" vector-effect="none" points="821,290 821,300 " />
</g>

<g fill="none" stroke="#000000" stroke-opacity="1" stroke-width="1" stroke-linecap="square" stroke-linejoin="bevel" transform="matrix(0.999405,0,0,0.999405,0,0)"
font-family="SimSun" font-size="9" font-weight="400" font-style="normal" 
>
</g>

<g fill="none" stroke="#000000" stroke-opacity="1" stroke-width="1" stroke-linecap="square" stroke-linejoin="bevel" transform="matrix(0.999405,0,0,0.999405,0,0)"
font-family="SimSun" font-size="9" font-weight="400" font-style="normal" 
>
</g>

<g fill="none" stroke="#55aa00" stroke-opacity="1" stroke-width="2" stroke-linecap="round" stroke-linejoin="bevel" transform="matrix(0.999405,0,0,0.999405,0,0)"
font-family="SimSun" font-size="9" font-weight="400" font-style="normal" 
>
<polyline fill="none" vector-effect="none" points="864.867,295.491 841.808,215.527 " />
<polyline fill="none" vector-effect="none" points="858,256 849,259 " />
</g>

<g fill="none" stroke="#000000" stroke-opacity="1" stroke-width="1" stroke-linecap="square" stroke-linejoin="bevel" transform="matrix(0.999405,0,0,0.999405,0,0)"
font-family="SimSun" font-size="9" font-weight="400" font-style="normal" 
>
</g>

<g fill="none" stroke="#000000" stroke-opacity="1" stroke-width="1" stroke-linecap="square" stroke-linejoin="bevel" transform="matrix(0.999405,0,0,0.999405,0,0)"
font-family="SimSun" font-size="9" font-weight="400" font-style="normal" 
>
</g>

<g fill="none" stroke="#55aa00" stroke-opacity="1" stroke-width="2" stroke-linecap="round" stroke-linejoin="bevel" transform="matrix(0.999405,0,0,0.999405,0,0)"
font-family="SimSun" font-size="9" font-weight="400" font-style="normal" 
>
<polyline fill="none" vector-effect="none" points="864.867,295.491 966.931,330.34 " />
<polyline fill="none" vector-effect="none" points="912,306 909,316 " />
<polyline fill="none" vector-effect="none" points="917,308 914,317 " />
</g>

<g fill="none" stroke="#000000" stroke-opacity="1" stroke-width="1" stroke-linecap="square" stroke-linejoin="bevel" transform="matrix(0.999405,0,0,0.999405,0,0)"
font-family="SimSun" font-size="9" font-weight="400" font-style="normal" 
>
</g>

<g fill="none" stroke="#000000" stroke-opacity="1" stroke-width="1" stroke-linecap="square" stroke-linejoin="bevel" transform="matrix(0.999405,0,0,0.999405,0,0)"
font-family="SimSun" font-size="9" font-weight="400" font-style="normal" 
>
</g>

<g fill="none" stroke="#55aa00" stroke-opacity="1" stroke-width="2" stroke-linecap="round" stroke-linejoin="bevel" transform="matrix(0.999405,0,0,0.999405,0,0)"
font-family="SimSun" font-size="9" font-weight="400" font-style="normal" 
>
<polyline fill="none" vector-effect="none" points="781.788,368.492 773.298,296.354 " />
<polyline fill="none" vector-effect="none" points="782,334 772,335 " />
</g>

<g fill="none" stroke="#000000" stroke-opacity="1" stroke-width="1" stroke-linecap="square" stroke-linejoin="bevel" transform="matrix(0.999405,0,0,0.999405,0,0)"
font-family="SimSun" font-size="9" font-weight="400" font-style="normal" 
>
</g>

<g fill="none" stroke="#000000" stroke-opacity="1" stroke-width="1" stroke-linecap="square" stroke-linejoin="bevel" transform="matrix(0.999405,0,0,0.999405,0,0)"
font-family="SimSun" font-size="9" font-weight="400" font-style="normal" 
>
</g>

<g fill="none" stroke="#55aa00" stroke-opacity="1" stroke-width="2" stroke-linecap="round" stroke-linejoin="bevel" transform="matrix(0.999405,0,0,0.999405,0,0)"
font-family="SimSun" font-size="9" font-weight="400" font-style="normal" 
>
<polyline fill="none" vector-effect="none" points="773.298,296.354 700.057,265.982 " />
<polyline fill="none" vector-effect="none" points="740,277 737,286 " />
</g>

<g fill="none" stroke="#000000" stroke-opacity="1" stroke-width="1" stroke-linecap="square" stroke-linejoin="bevel" transform="matrix(0.999405,0,0,0.999405,0,0)"
font-family="SimSun" font-size="9" font-weight="400" font-style="normal" 
>
</g>

<g fill="none" stroke="#000000" stroke-opacity="1" stroke-width="1" stroke-linecap="square" stroke-linejoin="bevel" transform="matrix(0.999405,0,0,0.999405,0,0)"
font-family="SimSun" font-size="9" font-weight="400" font-style="normal" 
>
</g>

<g fill="none" stroke="#55aa00" stroke-opacity="1" stroke-width="2" stroke-linecap="round" stroke-linejoin="bevel" transform="matrix(0.999405,0,0,0.999405,0,0)"
font-family="SimSun" font-size="9" font-weight="400" font-style="normal" 
>
<polyline fill="none" vector-effect="none" points="992.897,398.898 966.931,330.34 " />
<polyline fill="none" vector-effect="none" points="985,365 976,368 " />
</g>

<g fill="none" stroke="#000000" stroke-opacity="1" stroke-width="1" stroke-linecap="square" stroke-linejoin="bevel" transform="matrix(0.999405,0,0,0.999405,0,0)"
font-family="SimSun" font-size="9" font-weight="400" font-style="normal" 
>
</g>

<g fill="none" stroke="#000000" stroke-opacity="1" stroke-width="1" stroke-linecap="square" stroke-linejoin="bevel" transform="matrix(0.999405,0,0,0.999405,0,0)"
font-family="SimSun" font-size="9" font-weight="400" font-style="normal" 
>
</g>

<g fill="none" stroke="#55aa00" stroke-opacity="1" stroke-width="2" stroke-linecap="round" stroke-linejoin="bevel" transform="matrix(0.999405,0,0,0.999405,0,0)"
font-family="SimSun" font-size="9" font-weight="400" font-style="normal" 
>
<polyline fill="none" vector-effect="none" points="930.314,442.241 963.341,515.829 " />
<polyline fill="none" vector-effect="none" points="950,474 941,478 " />
</g>

<g fill="none" stroke="#000000" stroke-opacity="1" stroke-width="1" stroke-linecap="square" stroke-linejoin="bevel" transform="matrix(0.999405,0,0,0.999405,0,0)"
font-family="SimSun" font-size="9" font-weight="400" font-style="normal" 
>
</g>

<g fill="none" stroke="#000000" stroke-opacity="1" stroke-width="1" stroke-linecap="square" stroke-linejoin="bevel" transform="matrix(0.999405,0,0,0.999405,0,0)"
font-family="SimSun" font-size="9" font-weight="400" font-style="normal" 
>
</g>

<g fill="none" stroke="#55aa00" stroke-opacity="1" stroke-width="2" stroke-linecap="round" stroke-linejoin="bevel" transform="matrix(0.999405,0,0,0.999405,0,0)"
font-family="SimSun" font-size="9" font-weight="400" font-style="normal" 
>
<polyline fill="none" vector-effect="none" points="930.314,442.241 992.897,398.898 " />
<polyline fill="none" vector-effect="none" points="956,417 962,426 " />
</g>

<g fill="none" stroke="#000000" stroke-opacity="1" stroke-width="1" stroke-linecap="square" stroke-linejoin="bevel" transform="matrix(0.999405,0,0,0.999405,0,0)"
font-family="SimSun" font-size="9" font-weight="400" font-style="normal" 
>
</g>

<g fill="none" stroke="#000000" stroke-opacity="1" stroke-width="1" stroke-linecap="square" stroke-linejoin="bevel" transform="matrix(0.999405,0,0,0.999405,0,0)"
font-family="SimSun" font-size="9" font-weight="400" font-style="normal" 
>
</g>

<g fill="#ffaa00" fill-opacity="1" stroke="#000000" stroke-opacity="1" stroke-width="1" stroke-linecap="square" stroke-linejoin="bevel" transform="matrix(0.999405,0,0,0.999405,0,0)"
font-family="SimSun" font-size="9" font-weight="400" font-style="normal" 
>
<path vector-effect="none" fill-rule="evenodd" d="M863.83,394.154 C863.83,398.296 860.472,401.654 856.33,401.654 C852.188,401.654 848.83,398.296 848.83,394.154 C848.83,390.011 852.188,386.654 856.33,386.654 C860.472,386.654 863.83,390.011 863.83,394.154 "/>
</g>

<g fill="none" stroke="#000000" stroke-opacity="1" stroke-width="1" stroke-linecap="square" stroke-linejoin="bevel" transform="matrix(0.999405,0,0,0.999405,0,0)"
font-family="SimSun" font-size="9" font-weight="400" font-style="normal" 
>
</g>

<g fill="none" stroke="#000000" stroke-opacity="1" stroke-width="1" stroke-linecap="square" stroke-linejoin="bevel" transform="matrix(1,0,0,1,812.846,385.924)"
font-family="SimSun" font-size="9" font-weight="400" font-style="normal" 
>
</g>

<g fill="none" stroke="#000000" stroke-opacity="1" stroke-width="1" stroke-linecap="square" stroke-linejoin="bevel" transform="matrix(1,0,0,1,812.846,385.924)"
font-family="Times New Roman" font-size="8" font-weight="400" font-style="normal" 
>
<text fill="#000000" fill-opacity="1" stroke="none" xml:space="preserve" x="0" y="12" font-family="Times New Roman" font-size="8" font-weight="400" font-style="normal" 
 >Hap_1</text>
</g>

<g fill="none" stroke="#000000" stroke-opacity="1" stroke-width="1" stroke-linecap="square" stroke-linejoin="bevel" transform="matrix(1,0,0,1,812.846,385.924)"
font-family="SimSun" font-size="9" font-weight="400" font-style="normal" 
>
</g>

<g fill="none" stroke="#000000" stroke-opacity="1" stroke-width="1" stroke-linecap="square" stroke-linejoin="bevel" transform="matrix(0.999405,0,0,0.999405,0,0)"
font-family="SimSun" font-size="9" font-weight="400" font-style="normal" 
>
</g>

<g fill="#ffaa00" fill-opacity="1" stroke="#000000" stroke-opacity="1" stroke-width="1" stroke-linecap="square" stroke-linejoin="bevel" transform="matrix(0.999405,0,0,0.999405,0,0)"
font-family="SimSun" font-size="9" font-weight="400" font-style="normal" 
>
<path vector-effect="none" fill-rule="evenodd" d="M872.367,295.491 C872.367,299.633 869.009,302.991 864.867,302.991 C860.725,302.991 857.367,299.633 857.367,295.491 C857.367,291.349 860.725,287.991 864.867,287.991 C869.009,287.991 872.367,291.349 872.367,295.491 "/>
</g>

<g fill="none" stroke="#000000" stroke-opacity="1" stroke-width="1" stroke-linecap="square" stroke-linejoin="bevel" transform="matrix(0.999405,0,0,0.999405,0,0)"
font-family="SimSun" font-size="9" font-weight="400" font-style="normal" 
>
</g>

<g fill="none" stroke="#000000" stroke-opacity="1" stroke-width="1" stroke-linecap="square" stroke-linejoin="bevel" transform="matrix(1,0,0,1,821.378,285.321)"
font-family="SimSun" font-size="9" font-weight="400" font-style="normal" 
>
</g>

<g fill="none" stroke="#000000" stroke-opacity="1" stroke-width="1" stroke-linecap="square" stroke-linejoin="bevel" transform="matrix(1,0,0,1,821.378,285.321)"
font-family="Times New Roman" font-size="8" font-weight="400" font-style="normal" 
>
<text fill="#000000" fill-opacity="1" stroke="none" xml:space="preserve" x="0" y="12" font-family="Times New Roman" font-size="8" font-weight="400" font-style="normal" 
 >Hap_2</text>
</g>

<g fill="none" stroke="#000000" stroke-opacity="1" stroke-width="1" stroke-linecap="square" stroke-linejoin="bevel" transform="matrix(1,0,0,1,821.378,285.321)"
font-family="SimSun" font-size="9" font-weight="400" font-style="normal" 
>
</g>

<g fill="none" stroke="#000000" stroke-opacity="1" stroke-width="1" stroke-linecap="square" stroke-linejoin="bevel" transform="matrix(0.999405,0,0,0.999405,0,0)"
font-family="SimSun" font-size="9" font-weight="400" font-style="normal" 
>
</g>

<g fill="#ffaa00" fill-opacity="1" stroke="#000000" stroke-opacity="1" stroke-width="1" stroke-linecap="square" stroke-linejoin="bevel" transform="matrix(0.999405,0,0,0.999405,0,0)"
font-family="SimSun" font-size="9" font-weight="400" font-style="normal" 
>
<path vector-effect="none" fill-rule="evenodd" d="M825.38,466.4 C825.38,470.542 822.022,473.9 817.88,473.9 C813.738,473.9 810.38,470.542 810.38,466.4 C810.38,462.258 813.738,458.9 817.88,458.9 C822.022,458.9 825.38,462.258 825.38,466.4 "/>
</g>

<g fill="none" stroke="#000000" stroke-opacity="1" stroke-width="1" stroke-linecap="square" stroke-linejoin="bevel" transform="matrix(0.999405,0,0,0.999405,0,0)"
font-family="SimSun" font-size="9" font-weight="400" font-style="normal" 
>
</g>

<g fill="none" stroke="#000000" stroke-opacity="1" stroke-width="1" stroke-linecap="square" stroke-linejoin="bevel" transform="matrix(1,0,0,1,774.419,458.127)"
font-family="SimSun" font-size="9" font-weight="400" font-style="normal" 
>
</g>

<g fill="none" stroke="#000000" stroke-opacity="1" stroke-width="1" stroke-linecap="square" stroke-linejoin="bevel" transform="matrix(1,0,0,1,774.419,458.127)"
font-family="Times New Roman" font-size="8" font-weight="400" font-style="normal" 
>
<text fill="#000000" fill-opacity="1" stroke="none" xml:space="preserve" x="0" y="12" font-family="Times New Roman" font-size="8" font-weight="400" font-style="normal" 
 >Hap_3</text>
</g>

<g fill="none" stroke="#000000" stroke-opacity="1" stroke-width="1" stroke-linecap="square" stroke-linejoin="bevel" transform="matrix(1,0,0,1,774.419,458.127)"
font-family="SimSun" font-size="9" font-weight="400" font-style="normal" 
>
</g>

<g fill="none" stroke="#000000" stroke-opacity="1" stroke-width="1" stroke-linecap="square" stroke-linejoin="bevel" transform="matrix(0.999405,0,0,0.999405,0,0)"
font-family="SimSun" font-size="9" font-weight="400" font-style="normal" 
>
</g>

<g fill="#ffaa00" fill-opacity="1" stroke="#000000" stroke-opacity="1" stroke-width="1" stroke-linecap="square" stroke-linejoin="bevel" transform="matrix(0.999405,0,0,0.999405,0,0)"
font-family="SimSun" font-size="9" font-weight="400" font-style="normal" 
>
<path vector-effect="none" fill-rule="evenodd" d="M789.288,368.492 C789.288,372.634 785.93,375.992 781.788,375.992 C777.646,375.992 774.288,372.634 774.288,368.492 C774.288,364.35 777.646,360.992 781.788,360.992 C785.93,360.992 789.288,364.35 789.288,368.492 "/>
</g>

<g fill="none" stroke="#000000" stroke-opacity="1" stroke-width="1" stroke-linecap="square" stroke-linejoin="bevel" transform="matrix(0.999405,0,0,0.999405,0,0)"
font-family="SimSun" font-size="9" font-weight="400" font-style="normal" 
>
</g>

<g fill="none" stroke="#000000" stroke-opacity="1" stroke-width="1" stroke-linecap="square" stroke-linejoin="bevel" transform="matrix(1,0,0,1,738.348,360.277)"
font-family="SimSun" font-size="9" font-weight="400" font-style="normal" 
>
</g>

<g fill="none" stroke="#000000" stroke-opacity="1" stroke-width="1" stroke-linecap="square" stroke-linejoin="bevel" transform="matrix(1,0,0,1,738.348,360.277)"
font-family="Times New Roman" font-size="8" font-weight="400" font-style="normal" 
>
<text fill="#000000" fill-opacity="1" stroke="none" xml:space="preserve" x="0" y="12" font-family="Times New Roman" font-size="8" font-weight="400" font-style="normal" 
 >Hap_4</text>
</g>

<g fill="none" stroke="#000000" stroke-opacity="1" stroke-width="1" stroke-linecap="square" stroke-linejoin="bevel" transform="matrix(1,0,0,1,738.348,360.277)"
font-family="SimSun" font-size="9" font-weight="400" font-style="normal" 
>
</g>

<g fill="none" stroke="#000000" stroke-opacity="1" stroke-width="1" stroke-linecap="square" stroke-linejoin="bevel" transform="matrix(0.999405,0,0,0.999405,0,0)"
font-family="SimSun" font-size="9" font-weight="400" font-style="normal" 
>
</g>

<g fill="#ffaa00" fill-opacity="1" stroke="#000000" stroke-opacity="1" stroke-width="1" stroke-linecap="square" stroke-linejoin="bevel" transform="matrix(0.999405,0,0,0.999405,0,0)"
font-family="SimSun" font-size="9" font-weight="400" font-style="normal" 
>
<path vector-effect="none" fill-rule="evenodd" d="M970.841,515.829 C970.841,519.972 967.483,523.329 963.341,523.329 C959.199,523.329 955.841,519.972 955.841,515.829 C955.841,511.687 959.199,508.329 963.341,508.329 C967.483,508.329 970.841,511.687 970.841,515.829 "/>
</g>

<g fill="none" stroke="#000000" stroke-opacity="1" stroke-width="1" stroke-linecap="square" stroke-linejoin="bevel" transform="matrix(0.999405,0,0,0.999405,0,0)"
font-family="SimSun" font-size="9" font-weight="400" font-style="normal" 
>
</g>

<g fill="none" stroke="#000000" stroke-opacity="1" stroke-width="1" stroke-linecap="square" stroke-linejoin="bevel" transform="matrix(1,0,0,1,919.793,507.527)"
font-family="SimSun" font-size="9" font-weight="400" font-style="normal" 
>
</g>

<g fill="none" stroke="#000000" stroke-opacity="1" stroke-width="1" stroke-linecap="square" stroke-linejoin="bevel" transform="matrix(1,0,0,1,919.793,507.527)"
font-family="Times New Roman" font-size="8" font-weight="400" font-style="normal" 
>
<text fill="#000000" fill-opacity="1" stroke="none" xml:space="preserve" x="0" y="12" font-family="Times New Roman" font-size="8" font-weight="400" font-style="normal" 
 >Hap_5</text>
</g>

<g fill="none" stroke="#000000" stroke-opacity="1" stroke-width="1" stroke-linecap="square" stroke-linejoin="bevel" transform="matrix(1,0,0,1,919.793,507.527)"
font-family="SimSun" font-size="9" font-weight="400" font-style="normal" 
>
</g>

<g fill="none" stroke="#000000" stroke-opacity="1" stroke-width="1" stroke-linecap="square" stroke-linejoin="bevel" transform="matrix(0.999405,0,0,0.999405,0,0)"
font-family="SimSun" font-size="9" font-weight="400" font-style="normal" 
>
</g>

<g fill="#ffaa00" fill-opacity="1" stroke="#000000" stroke-opacity="1" stroke-width="1" stroke-linecap="square" stroke-linejoin="bevel" transform="matrix(0.999405,0,0,0.999405,0,0)"
font-family="SimSun" font-size="9" font-weight="400" font-style="normal" 
>
<path vector-effect="none" fill-rule="evenodd" d="M929.634,235.402 C929.634,239.544 926.276,242.902 922.134,242.902 C917.992,242.902 914.634,239.544 914.634,235.402 C914.634,231.26 917.992,227.902 922.134,227.902 C926.276,227.902 929.634,231.26 929.634,235.402 "/>
</g>

<g fill="none" stroke="#000000" stroke-opacity="1" stroke-width="1" stroke-linecap="square" stroke-linejoin="bevel" transform="matrix(0.999405,0,0,0.999405,0,0)"
font-family="SimSun" font-size="9" font-weight="400" font-style="normal" 
>
</g>

<g fill="none" stroke="#000000" stroke-opacity="1" stroke-width="1" stroke-linecap="square" stroke-linejoin="bevel" transform="matrix(1,0,0,1,878.61,227.267)"
font-family="SimSun" font-size="9" font-weight="400" font-style="normal" 
>
</g>

<g fill="none" stroke="#000000" stroke-opacity="1" stroke-width="1" stroke-linecap="square" stroke-linejoin="bevel" transform="matrix(1,0,0,1,878.61,227.267)"
font-family="Times New Roman" font-size="8" font-weight="400" font-style="normal" 
>
<text fill="#000000" fill-opacity="1" stroke="none" xml:space="preserve" x="0" y="12" font-family="Times New Roman" font-size="8" font-weight="400" font-style="normal" 
 >Hap_6</text>
</g>

<g fill="none" stroke="#000000" stroke-opacity="1" stroke-width="1" stroke-linecap="square" stroke-linejoin="bevel" transform="matrix(1,0,0,1,878.61,227.267)"
font-family="SimSun" font-size="9" font-weight="400" font-style="normal" 
>
</g>

<g fill="none" stroke="#000000" stroke-opacity="1" stroke-width="1" stroke-linecap="square" stroke-linejoin="bevel" transform="matrix(0.999405,0,0,0.999405,0,0)"
font-family="SimSun" font-size="9" font-weight="400" font-style="normal" 
>
</g>

<g fill="#ffaa00" fill-opacity="1" stroke="#000000" stroke-opacity="1" stroke-width="1" stroke-linecap="square" stroke-linejoin="bevel" transform="matrix(0.999405,0,0,0.999405,0,0)"
font-family="SimSun" font-size="9" font-weight="400" font-style="normal" 
>
<path vector-effect="none" fill-rule="evenodd" d="M780.798,296.354 C780.798,300.496 777.44,303.854 773.298,303.854 C769.156,303.854 765.798,300.496 765.798,296.354 C765.798,292.212 769.156,288.854 773.298,288.854 C777.44,288.854 780.798,292.212 780.798,296.354 "/>
</g>

<g fill="none" stroke="#000000" stroke-opacity="1" stroke-width="1" stroke-linecap="square" stroke-linejoin="bevel" transform="matrix(0.999405,0,0,0.999405,0,0)"
font-family="SimSun" font-size="9" font-weight="400" font-style="normal" 
>
</g>

<g fill="none" stroke="#000000" stroke-opacity="1" stroke-width="1" stroke-linecap="square" stroke-linejoin="bevel" transform="matrix(1,0,0,1,729.863,288.183)"
font-family="SimSun" font-size="9" font-weight="400" font-style="normal" 
>
</g>

<g fill="none" stroke="#000000" stroke-opacity="1" stroke-width="1" stroke-linecap="square" stroke-linejoin="bevel" transform="matrix(1,0,0,1,729.863,288.183)"
font-family="Times New Roman" font-size="8" font-weight="400" font-style="normal" 
>
<text fill="#000000" fill-opacity="1" stroke="none" xml:space="preserve" x="0" y="12" font-family="Times New Roman" font-size="8" font-weight="400" font-style="normal" 
 >Hap_7</text>
</g>

<g fill="none" stroke="#000000" stroke-opacity="1" stroke-width="1" stroke-linecap="square" stroke-linejoin="bevel" transform="matrix(1,0,0,1,729.863,288.183)"
font-family="SimSun" font-size="9" font-weight="400" font-style="normal" 
>
</g>

<g fill="none" stroke="#000000" stroke-opacity="1" stroke-width="1" stroke-linecap="square" stroke-linejoin="bevel" transform="matrix(0.999405,0,0,0.999405,0,0)"
font-family="SimSun" font-size="9" font-weight="400" font-style="normal" 
>
</g>

<g fill="#ffaa00" fill-opacity="1" stroke="#000000" stroke-opacity="1" stroke-width="1" stroke-linecap="square" stroke-linejoin="bevel" transform="matrix(0.999405,0,0,0.999405,0,0)"
font-family="SimSun" font-size="9" font-weight="400" font-style="normal" 
>
<path vector-effect="none" fill-rule="evenodd" d="M1000.4,398.898 C1000.4,403.04 997.039,406.398 992.897,406.398 C988.755,406.398 985.397,403.04 985.397,398.898 C985.397,394.756 988.755,391.398 992.897,391.398 C997.039,391.398 1000.4,394.756 1000.4,398.898 "/>
</g>

<g fill="none" stroke="#000000" stroke-opacity="1" stroke-width="1" stroke-linecap="square" stroke-linejoin="bevel" transform="matrix(0.999405,0,0,0.999405,0,0)"
font-family="SimSun" font-size="9" font-weight="400" font-style="normal" 
>
</g>

<g fill="none" stroke="#000000" stroke-opacity="1" stroke-width="1" stroke-linecap="square" stroke-linejoin="bevel" transform="matrix(1,0,0,1,949.332,390.665)"
font-family="SimSun" font-size="9" font-weight="400" font-style="normal" 
>
</g>

<g fill="none" stroke="#000000" stroke-opacity="1" stroke-width="1" stroke-linecap="square" stroke-linejoin="bevel" transform="matrix(1,0,0,1,949.332,390.665)"
font-family="Times New Roman" font-size="8" font-weight="400" font-style="normal" 
>
<text fill="#000000" fill-opacity="1" stroke="none" xml:space="preserve" x="0" y="12" font-family="Times New Roman" font-size="8" font-weight="400" font-style="normal" 
 >Hap_8</text>
</g>

<g fill="none" stroke="#000000" stroke-opacity="1" stroke-width="1" stroke-linecap="square" stroke-linejoin="bevel" transform="matrix(1,0,0,1,949.332,390.665)"
font-family="SimSun" font-size="9" font-weight="400" font-style="normal" 
>
</g>

<g fill="none" stroke="#000000" stroke-opacity="1" stroke-width="1" stroke-linecap="square" stroke-linejoin="bevel" transform="matrix(0.999405,0,0,0.999405,0,0)"
font-family="SimSun" font-size="9" font-weight="400" font-style="normal" 
>
</g>

<g fill="#ffaa00" fill-opacity="1" stroke="#000000" stroke-opacity="1" stroke-width="1" stroke-linecap="square" stroke-linejoin="bevel" transform="matrix(0.999405,0,0,0.999405,0,0)"
font-family="SimSun" font-size="9" font-weight="400" font-style="normal" 
>
<path vector-effect="none" fill-rule="evenodd" d="M974.431,330.34 C974.431,334.482 971.073,337.84 966.931,337.84 C962.789,337.84 959.431,334.482 959.431,330.34 C959.431,326.198 962.789,322.84 966.931,322.84 C971.073,322.84 974.431,326.198 974.431,330.34 "/>
</g>

<g fill="none" stroke="#000000" stroke-opacity="1" stroke-width="1" stroke-linecap="square" stroke-linejoin="bevel" transform="matrix(0.999405,0,0,0.999405,0,0)"
font-family="SimSun" font-size="9" font-weight="400" font-style="normal" 
>
</g>

<g fill="none" stroke="#000000" stroke-opacity="1" stroke-width="1" stroke-linecap="square" stroke-linejoin="bevel" transform="matrix(1,0,0,1,923.381,322.148)"
font-family="SimSun" font-size="9" font-weight="400" font-style="normal" 
>
</g>

<g fill="none" stroke="#000000" stroke-opacity="1" stroke-width="1" stroke-linecap="square" stroke-linejoin="bevel" transform="matrix(1,0,0,1,923.381,322.148)"
font-family="Times New Roman" font-size="8" font-weight="400" font-style="normal" 
>
<text fill="#000000" fill-opacity="1" stroke="none" xml:space="preserve" x="0" y="12" font-family="Times New Roman" font-size="8" font-weight="400" font-style="normal" 
 >Hap_9</text>
</g>

<g fill="none" stroke="#000000" stroke-opacity="1" stroke-width="1" stroke-linecap="square" stroke-linejoin="bevel" transform="matrix(1,0,0,1,923.381,322.148)"
font-family="SimSun" font-size="9" font-weight="400" font-style="normal" 
>
</g>

<g fill="none" stroke="#000000" stroke-opacity="1" stroke-width="1" stroke-linecap="square" stroke-linejoin="bevel" transform="matrix(0.999405,0,0,0.999405,0,0)"
font-family="SimSun" font-size="9" font-weight="400" font-style="normal" 
>
</g>

<g fill="#ffaa00" fill-opacity="1" stroke="#000000" stroke-opacity="1" stroke-width="1" stroke-linecap="square" stroke-linejoin="bevel" transform="matrix(0.999405,0,0,0.999405,0,0)"
font-family="SimSun" font-size="9" font-weight="400" font-style="normal" 
>
<path vector-effect="none" fill-rule="evenodd" d="M849.308,215.527 C849.308,219.67 845.95,223.027 841.808,223.027 C837.666,223.027 834.308,219.67 834.308,215.527 C834.308,211.385 837.666,208.027 841.808,208.027 C845.95,208.027 849.308,211.385 849.308,215.527 "/>
</g>

<g fill="none" stroke="#000000" stroke-opacity="1" stroke-width="1" stroke-linecap="square" stroke-linejoin="bevel" transform="matrix(0.999405,0,0,0.999405,0,0)"
font-family="SimSun" font-size="9" font-weight="400" font-style="normal" 
>
</g>

<g fill="none" stroke="#000000" stroke-opacity="1" stroke-width="1" stroke-linecap="square" stroke-linejoin="bevel" transform="matrix(1,0,0,1,791.337,207.404)"
font-family="SimSun" font-size="9" font-weight="400" font-style="normal" 
>
</g>

<g fill="none" stroke="#000000" stroke-opacity="1" stroke-width="1" stroke-linecap="square" stroke-linejoin="bevel" transform="matrix(1,0,0,1,791.337,207.404)"
font-family="Times New Roman" font-size="8" font-weight="400" font-style="normal" 
>
<text fill="#000000" fill-opacity="1" stroke="none" xml:space="preserve" x="0" y="12" font-family="Times New Roman" font-size="8" font-weight="400" font-style="normal" 
 >Hap_10</text>
</g>

<g fill="none" stroke="#000000" stroke-opacity="1" stroke-width="1" stroke-linecap="square" stroke-linejoin="bevel" transform="matrix(1,0,0,1,791.337,207.404)"
font-family="SimSun" font-size="9" font-weight="400" font-style="normal" 
>
</g>

<g fill="none" stroke="#000000" stroke-opacity="1" stroke-width="1" stroke-linecap="square" stroke-linejoin="bevel" transform="matrix(0.999405,0,0,0.999405,0,0)"
font-family="SimSun" font-size="9" font-weight="400" font-style="normal" 
>
</g>

<g fill="#ffaa00" fill-opacity="1" stroke="#000000" stroke-opacity="1" stroke-width="1" stroke-linecap="square" stroke-linejoin="bevel" transform="matrix(0.999405,0,0,0.999405,0,0)"
font-family="SimSun" font-size="9" font-weight="400" font-style="normal" 
>
<path vector-effect="none" fill-rule="evenodd" d="M707.557,265.982 C707.557,270.124 704.2,273.482 700.057,273.482 C695.915,273.482 692.557,270.124 692.557,265.982 C692.557,261.839 695.915,258.482 700.057,258.482 C704.2,258.482 707.557,261.839 707.557,265.982 "/>
</g>

<g fill="none" stroke="#000000" stroke-opacity="1" stroke-width="1" stroke-linecap="square" stroke-linejoin="bevel" transform="matrix(0.999405,0,0,0.999405,0,0)"
font-family="SimSun" font-size="9" font-weight="400" font-style="normal" 
>
</g>

<g fill="none" stroke="#000000" stroke-opacity="1" stroke-width="1" stroke-linecap="square" stroke-linejoin="bevel" transform="matrix(1,0,0,1,649.67,257.828)"
font-family="SimSun" font-size="9" font-weight="400" font-style="normal" 
>
</g>

<g fill="none" stroke="#000000" stroke-opacity="1" stroke-width="1" stroke-linecap="square" stroke-linejoin="bevel" transform="matrix(1,0,0,1,649.67,257.828)"
font-family="Times New Roman" font-size="8" font-weight="400" font-style="normal" 
>
<text fill="#000000" fill-opacity="1" stroke="none" xml:space="preserve" x="0" y="12" font-family="Times New Roman" font-size="8" font-weight="400" font-style="normal" 
 >Hap_11</text>
</g>

<g fill="none" stroke="#000000" stroke-opacity="1" stroke-width="1" stroke-linecap="square" stroke-linejoin="bevel" transform="matrix(1,0,0,1,649.67,257.828)"
font-family="SimSun" font-size="9" font-weight="400" font-style="normal" 
>
</g>

<g fill="none" stroke="#000000" stroke-opacity="1" stroke-width="1" stroke-linecap="square" stroke-linejoin="bevel" transform="matrix(0.999405,0,0,0.999405,0,0)"
font-family="SimSun" font-size="9" font-weight="400" font-style="normal" 
>
</g>

<g fill="#ffaa00" fill-opacity="1" stroke="#000000" stroke-opacity="1" stroke-width="1" stroke-linecap="square" stroke-linejoin="bevel" transform="matrix(0.999405,0,0,0.999405,0,0)"
font-family="SimSun" font-size="9" font-weight="400" font-style="normal" 
>
<path vector-effect="none" fill-rule="evenodd" d="M935.314,442.241 C935.314,445.003 933.075,447.241 930.314,447.241 C927.552,447.241 925.314,445.003 925.314,442.241 C925.314,439.48 927.552,437.241 930.314,437.241 C933.075,437.241 935.314,439.48 935.314,442.241 "/>
</g>

<g fill="none" stroke="#000000" stroke-opacity="1" stroke-width="1" stroke-linecap="square" stroke-linejoin="bevel" transform="matrix(0.999405,0,0,0.999405,0,0)"
font-family="SimSun" font-size="9" font-weight="400" font-style="normal" 
>
</g>

<g fill="none" stroke="#000000" stroke-opacity="1" stroke-width="1" stroke-linecap="square" stroke-linejoin="bevel" transform="matrix(1,0,0,1,924.263,436.481)"
font-family="SimSun" font-size="9" font-weight="400" font-style="normal" 
>
</g>

<g fill="none" stroke="#000000" stroke-opacity="1" stroke-width="1" stroke-linecap="square" stroke-linejoin="bevel" transform="matrix(1,0,0,1,924.263,436.481)"
font-family="SimSun" font-size="9" font-weight="400" font-style="normal" 
>
</g>

<g fill="none" stroke="#000000" stroke-opacity="1" stroke-width="1" stroke-linecap="square" stroke-linejoin="bevel" transform="matrix(1,0,0,1,0,0)"
font-family="SimSun" font-size="9" font-weight="400" font-style="normal" 
>
</g>
</g>
</svg>
